<svg xmlns="http://www.w3.org/2000/svg" width="25.099" height="25.099" viewBox="0 0 25.099 25.099"><defs><style>.a{fill:#8f9ea5;}</style></defs><g transform="translate(-1403.901 -3195.366)"><path class="a" d="M0,12.55a12.294,12.294,0,0,1,1.682-6.3A12.461,12.461,0,0,1,6.25,1.682,12.294,12.294,0,0,1,12.55,0a12.293,12.293,0,0,1,6.3,1.682A12.46,12.46,0,0,1,23.418,6.25a12.293,12.293,0,0,1,1.682,6.3,12.293,12.293,0,0,1-1.682,6.3,12.46,12.46,0,0,1-4.568,4.568,12.293,12.293,0,0,1-6.3,1.682,12.294,12.294,0,0,1-6.3-1.682,12.461,12.461,0,0,1-4.568-4.568A12.294,12.294,0,0,1,0,12.55Zm2.083,0a10.12,10.12,0,0,0,2.635,6.9,14.363,14.363,0,0,1,3.815-4.493,12.477,12.477,0,0,1,5.1-2.686q-.376-.878-.728-1.581a30.5,30.5,0,0,1-9.337,1.38q-.979,0-1.456-.025,0,.1-.013.251T2.083,12.55ZM2.41,9.964q.552.05,1.631.05A27.546,27.546,0,0,0,12,8.885,25.415,25.415,0,0,0,7.806,3.238,10.189,10.189,0,0,0,4.4,6.024,10.716,10.716,0,0,0,2.41,9.964Zm3.74,10.843a10.256,10.256,0,0,0,10.09,1.506,36.855,36.855,0,0,0-1.958-8.308A10.7,10.7,0,0,0,9.626,16.54,14.238,14.238,0,0,0,6.149,20.807ZM9.989,2.435a26.673,26.673,0,0,1,4.091,5.7,12.5,12.5,0,0,0,5.145-3.639,10.174,10.174,0,0,0-6.676-2.41A9.634,9.634,0,0,0,9.989,2.435Zm4.995,7.48q.376.8.853,2.033,1.857-.176,4.041-.176,1.556,0,3.087.075a10.077,10.077,0,0,0-2.46-6.074A12.419,12.419,0,0,1,14.984,9.914Zm1.481,3.79a36.026,36.026,0,0,1,1.732,7.63,10.472,10.472,0,0,0,3.238-3.288A10.138,10.138,0,0,0,22.941,13.7q-1.832-.125-3.338-.125Q18.222,13.579,16.465,13.7Z" transform="translate(1403.901 3195.366)"/></g></svg>