<svg xmlns="http://www.w3.org/2000/svg" width="1321.099" height="48" viewBox="0 0 1321.099 48"><g transform="translate(-300 -50)"><g transform="translate(-85 -19)"><g transform="translate(85 19)"><rect width="48" height="48" transform="translate(300 98) rotate(-90)" fill="#fff" opacity="0"/><path d="M25,5.7H15a11.1,11.1,0,0,0-11,11,11.16,11.16,0,0,0,8,10.6v2.6c0,.8.8,1.2,1.6.8l4.4-3h7a11.1,11.1,0,0,0,11-11A11.1,11.1,0,0,0,25,5.7Z" transform="translate(304 55.7)" fill="#027bff"/></g><text transform="translate(453 100)" fill="#027bff" font-size="20" font-family="Rubik-Regular, Rubik"><tspan x="0" y="0">contact me</tspan></text></g><g transform="translate(60.1 -3295.901)"><g transform="translate(1403.9 3360.624)"><path d="M295.622,496.293a3.29,3.29,0,0,0-1.851-.84c-1.526-.171-3.066-.257-4.611-.3s-3.077-.043-4.615-.042-3.08,0-4.615.042-3.086.129-4.613.3a3.286,3.286,0,0,0-1.85.84,3.434,3.434,0,0,0-1.035,1.778,17.4,17.4,0,0,0-.385,2.928c-.056,1-.057,1.983-.057,2.94s0,1.939.055,2.938a17.261,17.261,0,0,0,.382,2.928,3.443,3.443,0,0,0,1.036,1.778,3.284,3.284,0,0,0,1.848.839c1.527.171,3.068.257,4.613.3s3.077.043,4.615.042,3.081,0,4.616-.042,3.085-.129,4.612-.3a3.285,3.285,0,0,0,1.848-.839,3.45,3.45,0,0,0,1.038-1.779,17.369,17.369,0,0,0,.381-2.928c.054-.98.054-1.973.054-2.938h0v-.048h0a26.328,26.328,0,0,0-.43-5.819A3.44,3.44,0,0,0,295.622,496.293ZM281.1,507.75v-8.562l.39.2,3.539,1.847,4.269,2.228.453.237-.454.236-3.9,2.025-3.9,2.023-.389.2Z" transform="translate(-271.991 -495.111)" fill="#8f9ea5" fill-rule="evenodd"/></g><rect width="25.099" height="25.099" transform="translate(1403.901 3356.901)" fill="none"/></g><g transform="translate(126.099 -3214.84)"><path d="M22.666,83.457H16.377V81.895h6.289v1.562ZM12.191,89.863A4.13,4.13,0,0,1,12.8,92.15a4.556,4.556,0,0,1-.694,2.492A4.321,4.321,0,0,1,11,95.869a4.269,4.269,0,0,1-1.762.784,10.9,10.9,0,0,1-2.205.211H0V81.247H7.542a4.794,4.794,0,0,1,4.045,1.663A3.974,3.974,0,0,1,12.3,85.3a3.476,3.476,0,0,1-.722,2.3,3.682,3.682,0,0,1-1.189.889A3.468,3.468,0,0,1,12.191,89.863ZM3.6,87.4h3.3a3.131,3.131,0,0,0,1.651-.387,1.476,1.476,0,0,0,.633-1.373A1.4,1.4,0,0,0,8.352,84.2a5.9,5.9,0,0,0-1.843-.244H3.6Zm5.907,4.523a1.675,1.675,0,0,0-.993-1.673,3.913,3.913,0,0,0-1.562-.265H3.6v4.162H6.9a3.667,3.667,0,0,0,1.581-.274A1.969,1.969,0,0,0,9.509,91.927ZM25,89.387a14.69,14.69,0,0,1,.1,2.221H16.951a2.674,2.674,0,0,0,1.169,2.36,2.945,2.945,0,0,0,1.612.42,2.272,2.272,0,0,0,2.224-1.281h2.985a3.636,3.636,0,0,1-1.084,2.022,5.434,5.434,0,0,1-4.207,1.633,6.106,6.106,0,0,1-3.941-1.377Q14.007,94.006,14,90.9a6.057,6.057,0,0,1,1.539-4.46,5.4,5.4,0,0,1,4-1.551,6.378,6.378,0,0,1,2.631.523,4.53,4.53,0,0,1,1.931,1.657A5.522,5.522,0,0,1,25,89.387Zm-2.939.291a2.443,2.443,0,0,0-.782-1.768,2.549,2.549,0,0,0-1.733-.606,2.319,2.319,0,0,0-1.745.642,3.015,3.015,0,0,0-.78,1.732h5.04Z" transform="translate(1403.901 3199.593)" fill="#8f9ea5"/></g><g transform="translate(192.099 -3134.366)"><path d="M0,12.55a12.294,12.294,0,0,1,1.682-6.3A12.461,12.461,0,0,1,6.25,1.682,12.294,12.294,0,0,1,12.55,0a12.293,12.293,0,0,1,6.3,1.682A12.46,12.46,0,0,1,23.418,6.25a12.293,12.293,0,0,1,1.682,6.3,12.293,12.293,0,0,1-1.682,6.3,12.46,12.46,0,0,1-4.568,4.568,12.293,12.293,0,0,1-6.3,1.682,12.294,12.294,0,0,1-6.3-1.682,12.461,12.461,0,0,1-4.568-4.568A12.294,12.294,0,0,1,0,12.55Zm2.083,0a10.12,10.12,0,0,0,2.635,6.9,14.363,14.363,0,0,1,3.815-4.493,12.477,12.477,0,0,1,5.1-2.686q-.376-.878-.728-1.581a30.5,30.5,0,0,1-9.337,1.38q-.979,0-1.456-.025,0,.1-.013.251T2.083,12.55ZM2.41,9.964q.552.05,1.631.05A27.546,27.546,0,0,0,12,8.885,25.415,25.415,0,0,0,7.806,3.238,10.189,10.189,0,0,0,4.4,6.024,10.716,10.716,0,0,0,2.41,9.964Zm3.74,10.843a10.256,10.256,0,0,0,10.09,1.506,36.855,36.855,0,0,0-1.958-8.308A10.7,10.7,0,0,0,9.626,16.54,14.238,14.238,0,0,0,6.149,20.807ZM9.989,2.435a26.673,26.673,0,0,1,4.091,5.7,12.5,12.5,0,0,0,5.145-3.639,10.174,10.174,0,0,0-6.676-2.41A9.634,9.634,0,0,0,9.989,2.435Zm4.995,7.48q.376.8.853,2.033,1.857-.176,4.041-.176,1.556,0,3.087.075a10.077,10.077,0,0,0-2.46-6.074A12.419,12.419,0,0,1,14.984,9.914Zm1.481,3.79a36.026,36.026,0,0,1,1.732,7.63,10.472,10.472,0,0,0,3.238-3.288A10.138,10.138,0,0,0,22.941,13.7q-1.832-.125-3.338-.125Q18.222,13.579,16.465,13.7Z" transform="translate(1403.901 3195.366)" fill="#8f9ea5"/></g></g></svg>