<svg xmlns="http://www.w3.org/2000/svg" width="25.099" height="25.099" viewBox="0 0 25.099 25.099"><defs><style>.a{fill:#8f9ea5;fill-rule:evenodd;}.b{fill:none;}</style></defs><g transform="translate(-1403.9 -3356.901)"><g transform="translate(1403.9 3360.624)"><path class="a" d="M295.622,496.293a3.29,3.29,0,0,0-1.851-.84c-1.526-.171-3.066-.257-4.611-.3s-3.077-.043-4.615-.042-3.08,0-4.615.042-3.086.129-4.613.3a3.286,3.286,0,0,0-1.85.84,3.434,3.434,0,0,0-1.035,1.778,17.4,17.4,0,0,0-.385,2.928c-.056,1-.057,1.983-.057,2.94s0,1.939.055,2.938a17.261,17.261,0,0,0,.382,2.928,3.443,3.443,0,0,0,1.036,1.778,3.284,3.284,0,0,0,1.848.839c1.527.171,3.068.257,4.613.3s3.077.043,4.615.042,3.081,0,4.616-.042,3.085-.129,4.612-.3a3.285,3.285,0,0,0,1.848-.839,3.45,3.45,0,0,0,1.038-1.779,17.369,17.369,0,0,0,.381-2.928c.054-.98.054-1.973.054-2.938h0v-.048h0a26.328,26.328,0,0,0-.43-5.819A3.44,3.44,0,0,0,295.622,496.293ZM281.1,507.75v-8.562l.39.2,3.539,1.847,4.269,2.228.453.237-.454.236-3.9,2.025-3.9,2.023-.389.2Z" transform="translate(-271.991 -495.111)"/></g><rect class="b" width="25.099" height="25.099" transform="translate(1403.901 3356.901)"/></g></svg>